<?xml version="1.0" encoding="UTF-8"?>
<svg id="_レイヤー_1" xmlns="http://www.w3.org/2000/svg" version="1.1" viewBox="0 0 300 110">
  <!-- Generator: Adobe Illustrator 29.7.1, SVG Export Plug-In . SVG Version: 2.1.1 Build 8)  -->
  <defs>
    <style>
      .st0 {
        fill: #ffdd42;
        stroke: #f2f2f2;
        stroke-miterlimit: 10;
      }

      .st1 {
        fill: #fff;
      }

      .st2, .st3, .st4 {
        isolation: isolate;
      }

      .st3 {
        font-family: AB-babywalk-90ms-RKSJ-H, AB-babywalk;
        font-size: 20.78px;
      }

      .st3, .st4 {
        fill: #afeeee;
      }

      .st4 {
        font-family: TsukuARdGothicStd-B-90ms-RKSJ-H, 'FOT-TsukuARdGothic Std';
        font-size: 24.25px;
      }

      .st5 {
        fill: #eb6ea0;
      }
    </style>
  </defs>
  <g>
    <g class="st2">
      <g class="st2">
        <g class="st2">
          <g class="st2">
            <g class="st2">
              <text class="st3" transform="translate(137.83 61.1)"><tspan x="0" y="0">ねこカフェ</tspan></text>
            </g>
          </g>
        </g>
      </g>
    </g>
    <g class="st2">
      <g class="st2">
        <g class="st2">
          <g class="st2">
            <text class="st4" transform="translate(253.46 62.29)"><tspan x="0" y="0">縁</tspan></text>
          </g>
        </g>
      </g>
    </g>
  </g>
  <g>
    <rect class="st0" x="39.46" y="54.92" width="70.7" height="45.9"/>
    <polygon class="st0" points="74.81 9.18 119.45 57.48 30.17 57.48 74.81 9.18"/>
    <path class="st5" d="M92.66,99.33c-.37-.04-.82-.21-1.17-.39-.16-.08-.64-.38-.72-.53-.06-.1-.13-.76-.17-.95-.56-2.5-1.91-4.65-2.89-6.94-.28-.66-.89-2.55-1.57-2.69-.97-.19-.98,1.48-1.67,1.96-.09.07-.28.09-.31.12-.04.03-.33.87-.38,1.01-.63,1.56-1.39,3.27-2.5,4.45-.09.1-.62.55-.64.59-.11.24.45.64.53.9.09.29.06.41-.14.59-.46.44-1.45.44-2.03.38-.14-.01-.47-.12-.58-.1-.06.01-.32.22-.41.28-1.39.75-3.79.29-5.32.18-.3-.02-.61,0-.91-.04.06-1.56-1.19-2.08-2.16-2.72-2.61,2.17-6.24,2.25-9.3,1.56-1.73-.39-3.95-1.24-5.33-2.53-.51-.48-.92-1.07-1.5-1.45-.93-.61-3.09-.79-3.39-2.13-.05-.23-.07-.77.02-.98,0-.01.14-.18.16-.19.99-.92,3.25-.3,4.28.31,1.27.75,2.17,2.1,3.44,2.75,2.1,1.08,6.64,1.87,8.68.54,1.07-.7,1.78-2.08,2.73-2.97.71-2.84,1.8-5.68,3.78-7.63.58-.57,1.24-1.03,1.84-1.56,2.18-1.94,3.49-5.33,6.15-6.49.21-.09.59-.16.74-.25.13-.08.27-.74.29-.92.11-1.48-.89-2.68-1.25-4.07-.61-2.31-.68-4.99-.82-7.4,0-.16-.08-.54-.05-.66,0-.02.12-.25.13-.25.19-.06.48.24.61.4.44.5.76,1.18,1.24,1.65.1.1.42.39.54.35.51-.18.09-2.17.77-2.26.58-.08.44.88.67,1.24,1.11-.29,2.35.32,3.4-.25.3-.16.17-.28.53-.02,1.59,1.15.23,3.84.38,5.51.12,1.39,1.69,2.48,2.41,3.52.76,1.1,1.19,2.48,2.06,3.49,1.19-2.17,2.11-4.56,3.5-6.59.68-1,1.31-1.83,2.53-1.36.22.09.5.2.59.46.04.13.1.43.12.57v.5c-.05.31-.11.59-.25.87-.21.42-.52.68-.92.84-.1.04-.23.03-.3.08-.04.03-.31.46-.36.55-2.03,3.36-2.21,8.13-4.42,11.33-.07.11-.35.5-.42.56-.1.08-.36.12-.5.18-1.65.71-2.34,2.28-2.15,4.28.08.87.5,1.41.72,2.21s.36,1.66.56,2.47c.35,1.43,1.07,4.37,1.93,5.44.38.47.94.56.78,1.41-.1.52-.48.72-.89.82-.22-.02-.46.02-.68,0v-.03h0Z"/>
  </g>
  <g>
    <path class="st1" d="M141,27.04l4.19,14.4-19.21,5.58-4.19-14.4s19.21-5.58,19.21-5.58ZM130.1,31.28c-.66-.17-1.41.32-1.68.91-.55,1.22.31,3.26,1.57,3.72,1.14.42,2.05-.5,2.08-1.61s-.87-2.75-1.97-3.03h0ZM134.89,30.33c-.1-.03-.3-.05-.4-.05-2.26,0-2.21,3.54-.58,4.5.81.48,2.1.04,2.35-.91.29-1.08-.2-3.13-1.37-3.54h0ZM127.71,36.24c-1.15-.34-2.02.68-1.82,1.77s1.49,2.5,2.67,2.44c1.43-.07,1.82-1.56,1.18-2.67-.39-.67-1.3-1.33-2.03-1.55h0ZM140.23,36.49c.51-.94.5-2.8-.44-3.47-1.01-.71-2.04.21-2.44,1.13-.38.86-.41,1.99.18,2.77.77,1.01,2.16.57,2.7-.43h0ZM133.54,35.83c-.43,0-.9.18-1.22.43-1.13.88-.67,2.4-1.35,3.5-.42.67-.8.95-1.06,1.77-.47,1.5.69,3.11,2.25,3.16.22,0,.52,0,.73-.05.72-.16,1.02-.48,1.63-.81.96-.51,1.95-.59,3.01-.64.02,0,.02.04.06.03.39-.06.79-.19,1.1-.41,1.06-.76,1.15-2.56.35-3.55s-2.01-1.13-2.9-1.95-1.28-1.52-2.59-1.49h-.01Z"/>
    <path d="M133.54,35.83c1.31-.03,1.73.69,2.59,1.49s2.09.95,2.9,1.95.71,2.79-.35,3.55c-.31.22-.71.35-1.1.41-.04,0-.04-.03-.06-.03-1.06.05-2.05.13-3.01.64-.61.33-.91.65-1.63.81-.21.05-.51.05-.73.05-1.56-.05-2.72-1.66-2.25-3.16.26-.83.64-1.1,1.06-1.77.68-1.1.22-2.63,1.35-3.5.32-.25.79-.42,1.22-.43h.01Z"/>
    <path d="M130.1,31.28c1.1.28,2,1.96,1.97,3.03s-.94,2.02-2.08,1.61c-1.26-.46-2.12-2.51-1.57-3.72.27-.59,1.01-1.08,1.68-.91h0Z"/>
    <path d="M134.89,30.33c1.17.42,1.65,2.46,1.37,3.54-.25.95-1.55,1.39-2.35.91-1.63-.96-1.67-4.51.58-4.5.11,0,.31.02.4.05h0Z"/>
    <path d="M127.71,36.24c.73.22,1.64.88,2.03,1.55.64,1.11.25,2.6-1.18,2.67-1.18.06-2.46-1.34-2.67-2.44s.67-2.11,1.82-1.77h0Z"/>
    <path d="M140.23,36.49c-.54,1-1.93,1.44-2.7.43-.59-.78-.56-1.9-.18-2.77.4-.92,1.43-1.83,2.44-1.13.95.66.95,2.53.44,3.47h0Z"/>
  </g>
  <g>
    <path class="st1" d="M292.65,71.03l-2.55,14.78-19.71-3.4,2.55-14.78,19.71,3.4ZM280.99,70.06c-.52-.44-1.4-.33-1.91.08-1.03.85-1.15,3.07-.22,4.03.84.88,2.06.45,2.57-.53s.42-2.86-.44-3.58ZM285.71,71.31c-.07-.07-.24-.18-.34-.22-2.03-1-3.54,2.21-2.5,3.79.52.79,1.87.96,2.51.21.73-.85,1.19-2.9.32-3.78h0ZM276.67,73.47c-.89-.81-2.12-.28-2.41.79s.24,2.9,1.33,3.37c1.31.57,2.32-.6,2.23-1.88-.06-.77-.58-1.77-1.14-2.28h0ZM287.82,79.18c.87-.62,1.68-2.3,1.12-3.31-.6-1.08-1.92-.71-2.69-.05-.72.61-1.24,1.61-1.05,2.57.25,1.24,1.69,1.46,2.62.8h0ZM282.1,75.66c-.39-.18-.89-.23-1.29-.15-1.4.29-1.66,1.87-2.75,2.55-.67.42-1.13.5-1.73,1.13-1.08,1.14-.75,3.1.64,3.82.2.1.47.23.68.28.72.17,1.13.02,1.82-.01,1.08-.04,2.01.33,2.98.74.02,0,0,.04.04.06.38.12.79.17,1.17.11,1.29-.22,2.16-1.8,1.87-3.03s-1.31-1.89-1.75-3.03-.49-1.93-1.68-2.48h0Z"/>
    <path d="M282.1,75.66c1.19.55,1.25,1.38,1.68,2.48s1.46,1.77,1.75,3.03-.59,2.81-1.87,3.03c-.37.06-.79,0-1.17-.11-.04-.01-.02-.05-.04-.06-.98-.42-1.9-.79-2.98-.74-.69.03-1.1.18-1.82.01-.21-.05-.48-.18-.68-.28-1.38-.73-1.72-2.68-.64-3.82.6-.63,1.06-.71,1.73-1.13,1.1-.69,1.35-2.26,2.75-2.55.4-.08.9-.03,1.29.15h0Z"/>
    <path d="M280.99,70.06c.87.73.94,2.64.44,3.58s-1.73,1.41-2.57.53c-.93-.97-.81-3.18.22-4.03.5-.41,1.38-.52,1.91-.08Z"/>
    <path d="M285.71,71.31c.87.88.41,2.94-.32,3.78-.64.75-2,.57-2.51-.21-1.04-1.58.47-4.79,2.5-3.79.1.05.27.15.34.22h0Z"/>
    <path d="M276.67,73.47c.56.52,1.09,1.51,1.14,2.28.09,1.28-.92,2.44-2.23,1.88-1.08-.47-1.63-2.29-1.33-3.37s1.53-1.6,2.41-.79h0Z"/>
    <path d="M287.82,79.18c-.93.66-2.37.44-2.62-.8-.19-.96.33-1.96,1.05-2.57.77-.65,2.09-1.02,2.69.05.56,1.01-.25,2.69-1.12,3.31h0Z"/>
  </g>
  <g>
    <path class="st1" d="M189.92,75.82l4.19,14.4-19.21,5.58-4.19-14.4,19.21-5.58h0ZM179.01,80.06c-.66-.17-1.41.32-1.68.91-.55,1.22.31,3.26,1.57,3.72,1.14.42,2.05-.5,2.08-1.61s-.87-2.75-1.97-3.03h0ZM183.8,79.11c-.1-.03-.3-.05-.4-.05-2.26,0-2.21,3.54-.58,4.5.81.48,2.1.04,2.35-.91.29-1.08-.2-3.13-1.37-3.54h0ZM176.62,85.02c-1.15-.34-2.02.68-1.82,1.77s1.49,2.5,2.67,2.44c1.43-.07,1.82-1.56,1.18-2.67-.39-.67-1.3-1.33-2.03-1.55h0ZM189.15,85.26c.51-.94.5-2.8-.44-3.47-1.01-.71-2.04.21-2.44,1.13-.38.86-.41,1.99.18,2.77.77,1.01,2.16.57,2.7-.43h0ZM182.46,84.61c-.43,0-.9.18-1.22.43-1.13.88-.67,2.4-1.35,3.5-.42.67-.8.95-1.06,1.77-.47,1.5.69,3.11,2.25,3.16.22,0,.52,0,.73-.05.72-.16,1.02-.48,1.63-.81.96-.51,1.95-.59,3.01-.64.02,0,.02.04.06.03.39-.06.79-.19,1.1-.41,1.06-.76,1.15-2.56.35-3.55s-2.01-1.13-2.9-1.95-1.28-1.52-2.59-1.49h-.01Z"/>
    <path d="M182.46,84.61c1.31-.03,1.73.69,2.59,1.49s2.09.95,2.9,1.95.71,2.79-.35,3.55c-.31.22-.71.35-1.1.41-.04,0-.04-.03-.06-.03-1.06.05-2.05.13-3.01.64-.61.33-.91.65-1.63.81-.21.05-.51.05-.73.05-1.56-.05-2.72-1.66-2.25-3.16.26-.83.64-1.1,1.06-1.77.68-1.1.22-2.63,1.35-3.5.32-.25.79-.42,1.22-.43h.01Z"/>
    <path d="M179.01,80.06c1.1.28,2,1.96,1.97,3.03s-.94,2.02-2.08,1.61c-1.26-.46-2.12-2.51-1.57-3.72.27-.59,1.01-1.08,1.68-.91h0Z"/>
    <path d="M183.8,79.11c1.17.42,1.65,2.46,1.37,3.54-.25.95-1.55,1.39-2.35.91-1.63-.96-1.67-4.51.58-4.5.11,0,.31.02.4.05h0Z"/>
    <path d="M176.62,85.02c.73.22,1.64.88,2.03,1.55.64,1.11.25,2.6-1.18,2.67-1.18.06-2.46-1.34-2.67-2.44s.67-2.11,1.82-1.77h0Z"/>
    <path d="M189.15,85.26c-.54,1-1.93,1.44-2.7.43-.59-.78-.56-1.9-.18-2.77.4-.92,1.43-1.83,2.44-1.13.95.66.95,2.53.44,3.47h0Z"/>
  </g>
  <g>
    <path class="st1" d="M206.31,85.9l3.13,10.76-14.12,4.1-3.13-10.76,14.12-4.1ZM198.3,89.03c-.49-.13-1.04.23-1.23.67-.4.91.24,2.43,1.17,2.78.84.32,1.51-.37,1.53-1.19s-.65-2.05-1.46-2.26h0ZM201.82,88.34c-.07-.03-.22-.04-.3-.04-1.66-.01-1.62,2.63-.41,3.36.6.36,1.55.04,1.73-.67.21-.81-.16-2.33-1.02-2.65h0ZM196.55,92.72c-.85-.26-1.49.5-1.34,1.31s1.1,1.87,1.97,1.83c1.05-.05,1.34-1.16.86-1.99-.29-.5-.96-1-1.5-1.16h0ZM205.77,92.94c.37-.7.36-2.09-.34-2.59-.74-.53-1.5.15-1.79.83-.27.64-.3,1.48.14,2.07.57.75,1.59.43,1.99-.31h0ZM200.85,92.43c-.32,0-.66.13-.9.32-.83.65-.49,1.79-.99,2.61-.31.5-.58.7-.77,1.32-.34,1.12.52,2.32,1.66,2.36.16,0,.38,0,.54-.03.53-.12.75-.36,1.2-.6.7-.38,1.43-.43,2.21-.47.02,0,0,.03.05.02.29-.04.58-.14.81-.3.78-.56.84-1.91.25-2.64s-1.48-.85-2.14-1.47-.95-1.14-1.91-1.12h0Z"/>
    <path d="M200.85,92.43c.97-.02,1.28.52,1.91,1.12s1.54.72,2.14,1.47.53,2.08-.25,2.64c-.23.16-.52.26-.81.3-.03,0-.03-.03-.05-.02-.78.04-1.51.09-2.21.47-.45.24-.67.48-1.2.6-.16.04-.38.04-.54.03-1.15-.04-2.01-1.24-1.66-2.36.19-.62.47-.82.77-1.32.5-.82.15-1.96.99-2.61.24-.19.58-.31.9-.32h0Z"/>
    <path d="M198.3,89.03c.81.21,1.48,1.47,1.46,2.26s-.69,1.51-1.53,1.19c-.93-.35-1.57-1.88-1.17-2.78.2-.44.74-.8,1.23-.67h0Z"/>
    <path d="M201.82,88.34c.86.31,1.23,1.84,1.02,2.65-.18.71-1.13,1.03-1.73.67-1.2-.72-1.25-3.37.41-3.36.08,0,.22.01.3.04h0Z"/>
    <path d="M196.55,92.72c.54.16,1.21.66,1.5,1.16.48.83.19,1.94-.86,1.99-.87.04-1.82-1.01-1.97-1.83s.49-1.57,1.34-1.31h0Z"/>
    <path d="M205.77,92.94c-.4.75-1.42,1.07-1.99.31-.44-.58-.42-1.42-.14-2.07.29-.69,1.05-1.36,1.79-.83.7.5.71,1.89.34,2.59h0Z"/>
  </g>
  <g>
    <path class="st1" d="M222.77,89.56l2.13,7.32-10.72,3.12-2.13-7.32,10.72-3.12ZM216.66,91.88c-.37-.08-.78.18-.94.49-.32.63.13,1.67.82,1.89.63.2,1.14-.28,1.17-.85s-.45-1.4-1.05-1.52h0ZM219.33,91.33c-.05-.02-.16-.02-.22-.02-1.25.03-1.27,1.84-.38,2.31.44.23,1.16,0,1.32-.5.17-.56-.07-1.6-.71-1.8h0ZM215.28,94.45c-.63-.16-1.13.37-1.03.93s.79,1.26,1.45,1.22c.79-.05,1.03-.82.69-1.38-.21-.34-.7-.66-1.1-.77h0ZM222.21,94.41c.29-.49.32-1.44-.2-1.77-.55-.35-1.13.13-1.37.61-.22.45-.26,1.02.06,1.42.41.51,1.19.26,1.5-.26h0ZM218.52,94.16c-.24.01-.5.11-.68.24-.64.46-.4,1.24-.8,1.81-.24.35-.45.5-.61.92-.28.77.34,1.58,1.2,1.59.12,0,.29,0,.41-.03.4-.09.57-.26.91-.44.54-.28,1.09-.33,1.68-.37,0,0,0,.02.03.02.22-.04.44-.11.61-.23.6-.4.67-1.33.24-1.82s-1.1-.55-1.58-.96-.69-.76-1.42-.73h0Z"/>
    <path d="M218.52,94.16c.73-.03.95.33,1.42.73s1.15.46,1.58.96.35,1.42-.24,1.82c-.17.12-.4.19-.61.23-.02,0-.02-.02-.03-.02-.59.04-1.14.09-1.68.37-.34.18-.51.34-.91.44-.12.03-.28.03-.41.03-.86,0-1.49-.81-1.2-1.59.16-.43.37-.57.61-.92.39-.57.16-1.35.8-1.81.18-.13.45-.23.68-.24h0Z"/>
    <path d="M216.66,91.88c.6.13,1.08.98,1.05,1.52s-.55,1.05-1.17.85c-.69-.22-1.14-1.25-.82-1.89.16-.31.58-.57.94-.49h0Z"/>
    <path d="M219.33,91.33c.64.2.88,1.24.71,1.8-.15.49-.87.73-1.32.5-.89-.47-.87-2.29.38-2.31.06,0,.17,0,.22.02h0Z"/>
    <path d="M215.28,94.45c.4.1.9.43,1.1.77.34.56.1,1.33-.69,1.38-.65.04-1.35-.66-1.45-1.22s.4-1.09,1.03-.93h0Z"/>
    <path d="M222.21,94.41c-.32.52-1.09.76-1.5.26-.32-.39-.28-.97-.06-1.42.24-.48.82-.96,1.37-.61.52.33.49,1.28.2,1.77h0Z"/>
  </g>
  <g>
    <path class="st1" d="M273.58,0l4.19,14.4-19.21,5.58-4.19-14.4,19.21-5.58ZM262.67,4.24c-.66-.17-1.41.32-1.68.91-.55,1.22.31,3.26,1.57,3.72,1.14.42,2.05-.5,2.08-1.61s-.87-2.75-1.97-3.03h0ZM267.46,3.29c-.1-.03-.3-.05-.4-.05-2.26,0-2.21,3.54-.58,4.5.81.48,2.1.04,2.35-.91.29-1.08-.2-3.13-1.37-3.54h0ZM260.29,9.2c-1.15-.34-2.02.68-1.82,1.77s1.49,2.5,2.67,2.44c1.43-.07,1.82-1.56,1.18-2.67-.39-.67-1.3-1.33-2.03-1.55h0ZM272.81,9.44c.51-.94.5-2.8-.44-3.47-1.01-.71-2.04.21-2.44,1.13-.38.86-.41,1.99.18,2.77.77,1.01,2.16.57,2.7-.43ZM266.12,8.79c-.43,0-.9.18-1.22.43-1.13.88-.67,2.4-1.35,3.5-.42.67-.8.95-1.06,1.77-.47,1.5.69,3.11,2.25,3.16.22,0,.52,0,.73-.05.72-.16,1.02-.48,1.63-.81.96-.51,1.95-.59,3.01-.64.02,0,.02.04.06.03.39-.06.79-.19,1.1-.41,1.06-.76,1.15-2.56.35-3.55s-2.01-1.13-2.9-1.95-1.28-1.52-2.59-1.49h-.01Z"/>
    <path d="M266.12,8.79c1.31-.03,1.73.69,2.59,1.49s2.09.95,2.9,1.95.71,2.79-.35,3.55c-.31.22-.71.35-1.1.41-.04,0-.04-.03-.06-.03-1.06.05-2.05.13-3.01.64-.61.33-.91.65-1.63.81-.21.05-.51.05-.73.05-1.56-.05-2.72-1.66-2.25-3.16.26-.83.64-1.1,1.06-1.77.68-1.1.22-2.63,1.35-3.5.32-.25.79-.42,1.22-.43h.01Z"/>
    <path d="M262.67,4.24c1.1.28,2,1.96,1.97,3.03s-.94,2.02-2.08,1.61c-1.26-.46-2.12-2.51-1.57-3.72.27-.59,1.01-1.08,1.68-.91h0Z"/>
    <path d="M267.46,3.29c1.17.42,1.65,2.46,1.37,3.54-.25.95-1.55,1.39-2.35.91-1.63-.96-1.67-4.51.58-4.5.11,0,.31.02.4.05h0Z"/>
    <path d="M260.29,9.2c.73.22,1.64.88,2.03,1.55.64,1.11.25,2.6-1.18,2.67-1.18.06-2.46-1.34-2.67-2.44s.67-2.11,1.82-1.77h0Z"/>
    <path d="M272.81,9.44c-.54,1-1.93,1.44-2.7.43-.59-.78-.56-1.9-.18-2.77.4-.92,1.43-1.83,2.44-1.13.95.66.95,2.53.44,3.47Z"/>
  </g>
  <g>
    <path class="st1" d="M287.81,14.86l2.69,9.25-13.58,3.95-2.69-9.25s13.58-3.95,13.58-3.95ZM280.08,17.79c-.46-.1-.99.23-1.19.62-.41.8.16,2.11,1.04,2.38.79.25,1.45-.36,1.49-1.08s-.57-1.77-1.33-1.93h-.01ZM283.46,17.1c-.07-.02-.21-.03-.28-.03-1.58.03-1.61,2.33-.49,2.92.56.3,1.47,0,1.67-.63.22-.7-.09-2.02-.9-2.27h0ZM278.32,21.05c-.8-.2-1.43.47-1.31,1.18s1,1.59,1.83,1.54c1-.07,1.31-1.04.88-1.75-.26-.42-.89-.84-1.4-.97ZM287.1,20.99c.37-.61.4-1.82-.25-2.24-.7-.44-1.43.17-1.73.77-.28.57-.33,1.29.08,1.79.52.64,1.5.33,1.9-.33h0ZM282.42,20.68c-.3.01-.63.13-.87.3-.81.59-.51,1.57-1.01,2.29-.31.44-.58.63-.77,1.17-.36.98.43,2,1.52,2,.15,0,.36,0,.52-.04.51-.12.72-.33,1.16-.55.68-.35,1.38-.41,2.12-.47.01,0,.01.03.04.02.27-.05.56-.14.78-.29.76-.51.85-1.68.31-2.3s-1.39-.69-2.01-1.21-.87-.96-1.8-.92c0,0,.01,0,.01,0Z"/>
    <path d="M282.42,20.68c.92-.04,1.2.42,1.8.92s1.45.58,2.01,1.21.45,1.79-.31,2.3c-.22.15-.5.24-.78.29-.03,0-.03-.02-.04-.02-.75.05-1.44.12-2.12.47-.43.22-.65.43-1.16.55-.15.03-.36.04-.52.04-1.1,0-1.88-1.03-1.52-2,.2-.54.47-.72.77-1.17.5-.72.2-1.7,1.01-2.29.23-.17.56-.29.87-.3h-.01Z"/>
    <path d="M280.08,17.79c.77.16,1.37,1.23,1.33,1.93s-.7,1.33-1.49,1.08c-.87-.28-1.45-1.58-1.04-2.38.2-.39.73-.72,1.19-.62h.01Z"/>
    <path d="M283.46,17.1c.81.25,1.12,1.56.9,2.27-.19.62-1.11.93-1.67.63-1.13-.59-1.1-2.89.49-2.92.08,0,.21,0,.28.03h0Z"/>
    <path d="M278.32,21.05c.51.13,1.14.54,1.4.97.43.71.13,1.68-.88,1.75-.83.06-1.71-.83-1.83-1.54s.51-1.38,1.31-1.18Z"/>
    <path d="M287.1,20.99c-.4.66-1.38.96-1.9.33-.4-.49-.36-1.22-.08-1.79.3-.6,1.04-1.21,1.73-.77.65.41.62,1.62.25,2.24h0Z"/>
  </g>
</svg>